HIERARCHY
ROOT Hips
{
  OFFSET 0.000000 0.000000 0.000000
  CHANNELS 6 Xposition Yposition Zposition Zrotation Xrotation Yrotation
  JOINT Spine
  {
    OFFSET 0.000000 0.000000 0.000000
    CHANNELS 3 Zrotation Xrotation Yrotation
    JOINT Spine1
    {
      OFFSET 0.114178 0.375346 0.199977
      CHANNELS 3 Zrotation Xrotation Yrotation
      JOINT Spine2
      {
        OFFSET -0.305711 0.040779 0.096593
        CHANNELS 3 Zrotation Xrotation Yrotation
        JOINT Neck
        {
          OFFSET 0.000000 0.000000 0.000000
          CHANNELS 3 Zrotation Xrotation Yrotation
          JOINT Head
          {
            OFFSET 0.259589 0.001812 0.160172
            CHANNELS 3 Zrotation Xrotation Yrotation
          }
        }
      }
      JOINT LeftShoulder
      {
        OFFSET 0.000000 0.000000 0.000000
        CHANNELS 3 Zrotation Xrotation Yrotation
        JOINT LeftUpperArm
        {
          OFFSET 0.000000 0.000000 0.000000
          CHANNELS 3 Zrotation Xrotation Yrotation
          JOINT LeftForearm
          {
            OFFSET 0.019710 -0.140503 0.003838
            CHANNELS 3 Zrotation Xrotation Yrotation
            JOINT LeftHand
            {
              OFFSET -0.056381 0.050539 0.117333
              CHANNELS 3 Zrotation Xrotation Yrotation
            }
          }
        }
      }
      JOINT RightShoulder
      {
        OFFSET -0.305711 0.040779 0.096593
        CHANNELS 3 Zrotation Xrotation Yrotation
        JOINT RightUpperArm
        {
          OFFSET 0.000000 0.000000 0.000000
          CHANNELS 3 Zrotation Xrotation Yrotation
          JOINT RightForearm
          {
            OFFSET -0.191375 -0.116263 -0.052067
            CHANNELS 3 Zrotation Xrotation Yrotation
            JOINT RightHand
            {
              OFFSET -0.019522 -0.194788 -0.003059
              CHANNELS 3 Zrotation Xrotation Yrotation
            }
          }
        }
      }
    }
  }
  JOINT LeftUpLeg
  {
    OFFSET 0.000000 0.000000 0.000000
    CHANNELS 3 Zrotation Xrotation Yrotation
    JOINT LeftLeg
    {
      OFFSET 0.001946 -0.084483 0.062368
      CHANNELS 3 Zrotation Xrotation Yrotation
      JOINT LeftFoot
      {
        OFFSET -0.041789 -0.313847 -0.180433
        CHANNELS 3 Zrotation Xrotation Yrotation
        JOINT LeftToeBase
        {
          OFFSET 0.145984 0.174949 0.236567
          CHANNELS 3 Zrotation Xrotation Yrotation
        }
      }
    }
  }
  JOINT RightUpLeg
  {
    OFFSET -0.239090 0.061627 0.086720
    CHANNELS 3 Zrotation Xrotation Yrotation
    JOINT RightLeg
    {
      OFFSET 0.205870 0.114481 0.136447
      CHANNELS 3 Zrotation Xrotation Yrotation
      JOINT RightFoot
      {
        OFFSET -0.038875 -0.271638 -0.055199
        CHANNELS 3 Zrotation Xrotation Yrotation
        JOINT RightToeBase
        {
          OFFSET 0.044236 0.202526 0.296196
          CHANNELS 3 Zrotation Xrotation Yrotation
        }
      }
    }
  }
}
MOTION
Frames: 7
Frame Time: 0.081683
0.121178 0.979165 -0.045676 70.453037 -14.185012 19.986857 -86.425362 -15.317420 11.654955 93.713429 12.682196 15.970350 -149.545946 4.838623 44.250456 0.000000 0.000000 0.000000 59.973426 16.230237 -49.178428 -164.601000 -20.831861 14.148509 23.197881 0.186707 -0.435655 160.050654 -40.538221 -129.234216 -19.070260 16.110825 1.354020 -42.882539 -15.446596 -27.271665 -23.174684 1.083190 2.528565 47.068075 10.633778 6.134033 47.037492 12.441185 7.210249 -69.550022 -13.492256 -56.635587 -5.334665 5.663833 65.998745 -3.936363 40.561759 -126.164166 -95.065826 58.780846 175.566479 -5.401839 57.503761 -69.323836 -96.928073 46.488457 47.458855 8.628102 11.450527 -108.608017 -18.215259 35.844924 -124.908230
0.122480 0.981116 -0.046665 70.943603 -14.462709 20.193884 -85.831040 -14.723527 18.131301 91.857096 19.179638 15.441647 -147.982676 3.807837 44.555601 0.000000 0.000000 0.000000 60.339341 17.515167 -47.947578 -172.247411 -23.118719 20.732238 23.189990 0.649844 -1.516545 165.872260 -32.006453 -106.958976 -18.997002 10.511206 3.767120 -39.617928 -18.553396 -29.860326 -23.158081 1.409718 3.291816 43.280629 14.214452 7.040312 39.188832 16.590523 7.488659 -64.470064 -5.950273 -86.071249 -10.118896 11.479048 94.295349 -7.864226 42.043027 -132.183937 -91.276079 59.898157 179.458078 5.373641 61.648104 -60.936713 -107.521399 47.202440 43.690118 8.208048 12.667691 -114.086777 -17.508973 35.886534 -123.496791
0.121358 0.981114 -0.045188 70.973521 -14.151343 19.752684 -86.584754 -14.411763 17.792566 92.161186 18.849201 14.913213 -149.222491 4.076833 42.822432 0.000000 0.000000 0.000000 63.638957 18.624408 -45.482235 -172.568573 -26.591846 24.571706 23.169730 1.190071 -2.778319 164.709672 -34.815701 -102.219558 -16.946043 7.278147 5.263350 -39.737023 -18.446836 -28.896954 -23.158903 1.395363 3.258247 46.291182 15.767385 7.587101 40.428206 16.019093 7.404780 -66.943557 -9.784282 -76.061639 -8.082341 10.998178 86.545482 -5.806158 41.250832 -133.878577 -87.343596 60.027066 -177.229871 5.422203 61.228454 -60.810872 -112.785580 49.883790 38.733059 13.117601 14.202142 -112.232257 -19.603323 37.584423 -124.943911
0.123737 0.975724 -0.049457 68.189546 -14.297449 20.993610 -82.393325 -14.471560 19.550986 90.236895 22.881305 13.014139 -148.058727 5.622762 43.286365 0.000000 0.000000 0.000000 59.851435 16.795043 -43.667145 -176.250831 -21.164817 22.044975 23.185265 0.808833 -1.887744 173.516863 -27.718656 -100.447686 -25.333351 7.973106 -7.551386 -43.521025 -21.818396 -27.508190 -23.151368 1.521905 3.554226 48.064194 18.175403 8.052783 33.669744 8.898276 3.012804 -64.416828 -4.824435 -116.065240 -3.637030 16.828882 124.168476 -6.711613 44.466237 -137.924012 -87.785933 61.397421 -177.192907 8.222419 65.618264 -63.310560 -120.517203 54.776036 38.152565 15.645695 9.895636 -118.745588 -11.184708 30.536413 -119.908593
0.127177 0.980462 -0.047489 70.915514 -14.150956 19.772900 -85.147474 -13.925771 21.632056 92.347328 23.678052 13.937080 -149.663342 6.331146 44.399711 0.000000 0.000000 0.000000 62.874195 19.549441 -45.817652 -178.627150 -25.848060 27.652183 23.153887 1.480818 -3.458110 164.229889 -41.717152 -102.235253 -16.323534 5.779829 4.118358 -35.038950 -21.563956 -30.741701 -23.129042 1.846415 4.313868 46.831538 14.070373 10.831265 41.834310 14.150242 8.917513 -61.783918 -1.459316 -89.036436 -13.684437 14.767595 100.677048 -11.636030 42.521030 -137.812915 -95.431636 60.192754 175.980125 5.691150 61.502377 -60.809986 -110.060097 49.082506 43.883192 10.114476 13.173562 -116.758155 -17.000118 35.065915 -123.113633
0.124981 0.980182 -0.037478 73.747526 -11.985198 15.933060 -88.505684 -12.140343 14.708089 95.671213 10.155172 19.264019 -152.552694 0.333996 44.077961 0.000000 0.000000 0.000000 56.733519 12.194715 -51.313070 -161.330554 -11.464620 3.580521 23.163896 -1.304728 3.046326 1.787743 -67.663082 -3.536114 -3.384122 -15.135554 8.899025 -47.682495 -3.544394 -26.257377 -23.198532 0.053551 0.124953 35.123210 10.882582 -0.919470 46.851323 23.317355 8.223203 -80.714730 -16.518629 -51.738095 4.178236 1.268087 58.027657 4.073169 36.114069 -109.667177 -90.203075 57.655323 178.779691 -22.727050 46.943903 -78.508334 -76.206607 45.262605 53.484800 9.694131 8.530879 -98.895504 -16.982267 34.700939 -125.529930
0.117882 0.979298 -0.047382 70.164726 -15.053237 21.307731 -84.870354 -15.954851 14.066518 93.441782 10.579145 22.815405 -151.401278 -3.851999 47.696359 0.000000 0.000000 0.000000 58.616441 15.519388 -49.922238 -154.034141 4.431609 -12.311821 22.916419 -3.708627 8.698949 -141.859600 -63.159811 124.053225 19.271613 0.468030 23.953198 -40.504844 -5.019584 -33.771826 -23.195172 0.409699 0.956026 34.866061 8.428189 1.382097 41.936930 19.014782 7.939328 -75.586487 -17.961278 -37.097818 2.347019 1.287089 45.997157 -2.018903 34.658985 -117.909875 -90.264736 57.195734 178.548329 -7.746807 47.600550 -62.286098 -85.745549 33.823490 46.613693 4.073265 6.964602 -103.999395 -15.412739 31.267453 -125.224757
